<?xml version="1.0" encoding="utf-8"?>
<!-- Generator: Adobe Illustrator 19.0.0, SVG Export Plug-In . SVG Version: 6.00 Build 0)  -->
<svg version="1.1" id="Layer_1" xmlns="http://www.w3.org/2000/svg" xmlns:xlink="http://www.w3.org/1999/xlink" x="0px" y="0px"
	 viewBox="0 0 100 100" style="enable-background:new 0 0 100 100;" xml:space="preserve">
<style type="text/css">
	.st0{fill:#ED2126;stroke:#FFFFFF;stroke-linecap:round;stroke-linejoin:round;stroke-miterlimit:10;}
	.st1{fill:#570E0E;}
</style>
<g id="XMLID_1_">
	<path id="XMLID_19_" class="st0" d="M49.5,98.3c-0.1,0-0.2,0-0.4,0c-2.5-10.3-7-19.7-12.7-28.6c-4.3-6.7-8.9-13.4-13.2-20.1
		c-2.4-3.7-4.5-7.6-5.5-12c-0.3-1.5-0.5-3-0.7-4.4c0-0.7,0-1.4,0-2c0.2-1.6,0.3-3.1,0.5-4.7c0.8-5.2,3-9.6,6.4-13.5
		C30.7,5.3,39.1,1.4,49.3,1.4C55.6,1.3,61.6,3,67,6.4c7.3,4.6,12.1,11,13.9,19.6c0.3,1.4,0.3,2.9,0.5,4.4c0,0.4,0,0.9,0,1.3
		c0,0.3-0.1,0.7-0.1,1c0,4.4-1.2,8.4-3.4,12.2c-1.4,2.5-2.8,5.1-4.3,7.5c-4.1,6.4-8.3,12.7-12.4,19.1c-4.5,7-8.1,14.4-10.5,22.4
		C50.2,95.3,49.9,96.8,49.5,98.3z"/>
</g>
<g id="XMLID_2_">
	<path id="XMLID_17_" class="st1" d="M225.6,34.5c-0.5,0-1.1,0-1.6,0c-0.2-0.1-0.5-0.1-0.7-0.2c-2.2-0.2-4.1-0.9-6-2
		c-5.9-3.6-7.6-11-3.9-16.4c3.2-4.6,9.3-6.8,15-5.3c4.7,1.3,7.9,4.1,9.3,8.8c0.2,0.8,0.3,1.6,0.5,2.4c0,0.3,0,0.6,0,0.9
		c-0.1,0.5-0.2,1.1-0.3,1.6c-1,4.6-3.9,7.6-8.3,9.2C228.4,34.1,227,34.2,225.6,34.5z"/>
</g>
<g id="XMLID_3_">
	<path id="XMLID_41_" class="st1" d="M11,25.9C15.6,15.6,29.9,5.1,38.5,5.8c-0.5,0.8-0.8,1.4-1.2,2c-4.9,6.6-7.1,13.9-7.2,22.2
		c-0.1,4.9-0.8,9.8-1.9,14.6c-0.9,3.8-2.7,7.4-7.5,9C20,44.4,14.7,37.6,11,30C11,28.7,11,27.3,11,25.9z"/>
	<path id="XMLID_40_" class="st1" d="M87.3,30c-1.6,2.9-3.4,5.8-4.8,8.8c-2,4.6-3.7,9.3-5.7,14.3c-2.1-0.1-3.9-1.9-4.6-4
		c-1.6-4.8-3.3-9.8-3.8-14.8c-0.7-7.1-0.2-14.3-3.8-20.8c-1.5-2.6-3.1-5.2-4.7-7.8c8.5-0.7,22.8,9.9,27.4,20.1
		C87.3,27.3,87.3,28.7,87.3,30z"/>
	<path id="XMLID_36_" class="st1" d="M64.9,33c0.7,3.2,1.8,8.6,2.9,14c0.2,1.2,0.2,2.7-0.2,3.9c-1.3,3.3-3,6.5-4.4,9.7
		c-0.5,1.2-0.8,2.5-0.9,3.7c-0.3,3.7-1.9,5-5.6,4.4c-4.2-0.7-6.1-2.5-5.8-5.9c0.1-0.8,0.7-1.7,1.2-2.4c0.5-0.6,1.4-0.9,1.7-1.6
		c0.7-1.2,1.8-3,1.4-3.9c-0.5-1.1-2.4-1.8-3.8-2.2c-1.2-0.4-2.6-0.4-3.8,0c-1.7,0.5-3.3,1.4-4.9,2.1c0.8,1.7,1.4,3.6,2.6,4.9
		c1,1.1,2,1.8,2,3.6c0.1,2.3-0.7,3.7-2.8,4.2c-1.9,0.5-3.8,1.1-5.7,1c-1-0.1-2.8-1.6-2.8-2.4c0-5.5-2.9-9.8-5.1-14.4
		c-1-1.9-0.9-3.5-0.5-5.6c1.1-5.2,2.3-10.5,2.4-15.7c0-8,2.1-15.1,7-21.3c1.2-1.5,1-4.3,4-4.2c4,0.2,8,0.1,12,0.6
		c0.8,0.1,1.3,2.2,2.1,3.2C63.1,15.2,65.8,22.4,64.9,33z M62.2,30.6c0-2.1-2-4.2-4-4c-2.2,0.3-3.7,1.4-3.7,3.8
		c0,2.3,1.3,3.7,3.6,3.8C60.4,34.5,62.2,32.8,62.2,30.6z M40.3,34.3c2-0.1,3.3-1.3,3.5-3.7c0.1-2.1-1.8-4.2-3.9-4
		c-2.2,0.2-3.7,1.5-3.9,3.8C35.9,32.6,37.7,34.3,40.3,34.3z"/>
</g>
</svg>
