<?xml version="1.0" encoding="utf-8"?>
<!-- Generator: Adobe Illustrator 19.0.0, SVG Export Plug-In . SVG Version: 6.00 Build 0)  -->
<svg version="1.1" id="Layer_1" xmlns="http://www.w3.org/2000/svg" xmlns:xlink="http://www.w3.org/1999/xlink" x="0px" y="0px"
	 viewBox="0 0 100 100" style="enable-background:new 0 0 100 100;" xml:space="preserve">
<style type="text/css">
	.st0{fill:#ED2126;stroke:#FFFFFF;stroke-linecap:round;stroke-linejoin:round;stroke-miterlimit:10;}
	.st1{fill:#570E0E;}
</style>
<g id="XMLID_1_">
	<path id="XMLID_19_" class="st0" d="M49.5,98.3c-0.1,0-0.2,0-0.4,0c-2.5-10.3-7-19.7-12.7-28.6c-4.3-6.7-8.9-13.4-13.2-20.1
		c-2.4-3.7-4.5-7.6-5.5-12c-0.3-1.5-0.5-3-0.7-4.4c0-0.7,0-1.4,0-2c0.2-1.6,0.3-3.1,0.5-4.7c0.8-5.2,3-9.6,6.4-13.5
		C30.7,5.3,39.1,1.4,49.3,1.4C55.6,1.3,61.6,3,67,6.4c7.3,4.6,12.1,11,13.9,19.6c0.3,1.4,0.3,2.9,0.5,4.4c0,0.4,0,0.9,0,1.3
		c0,0.3-0.1,0.7-0.1,1c0,4.4-1.2,8.4-3.4,12.2c-1.4,2.5-2.8,5.1-4.3,7.5c-4.1,6.4-8.3,12.7-12.4,19.1c-4.5,7-8.1,14.4-10.5,22.4
		C50.2,95.3,49.9,96.8,49.5,98.3z"/>
</g>
<g id="XMLID_2_">
	<path id="XMLID_17_" class="st1" d="M225.6,34.5c-0.5,0-1.1,0-1.6,0c-0.2-0.1-0.5-0.1-0.7-0.2c-2.2-0.2-4.1-0.9-6-2
		c-5.9-3.6-7.6-11-3.9-16.4c3.2-4.6,9.3-6.8,15-5.3c4.7,1.3,7.9,4.1,9.3,8.8c0.2,0.8,0.3,1.6,0.5,2.4c0,0.3,0,0.6,0,0.9
		c-0.1,0.5-0.2,1.1-0.3,1.6c-1,4.6-3.9,7.6-8.3,9.2C228.4,34.1,227,34.2,225.6,34.5z"/>
</g>
<g id="XMLID_3_">
	<path id="XMLID_25_" class="st1" d="M43.6,56.2c-0.3,0-0.5,0-0.7,0c-5.1,0-10.2,0-15.3,0c-2.1,0-3.2-1.1-3.2-3.2
		c0-6.6,0-13.2,0-19.7c0-0.5,0.1-0.8,0.5-1.1c5-4.1,10-8.2,15-12.4c2.9-2.4,5.9-4.8,8.8-7.3c0.3-0.3,0.6-0.3,0.9,0
		c7.6,6.3,15.1,12.6,22.8,18.7c1.1,0.9,1.6,1.8,1.5,3.3c-0.1,6.1,0,12.3,0,18.4c0,2-1.1,3.1-3.1,3.1c-5.2,0-10.3,0-15.5,0
		c-0.2,0-0.3,0-0.6,0c0-5.5,0-10.9,0-16.4c-3.7,0-7.4,0-11.1,0C43.6,45.2,43.6,50.6,43.6,56.2z"/>
	<path id="XMLID_24_" class="st1" d="M49.1,8.4c-2.2,1.8-4.3,3.6-6.5,5.4C35,20.2,27.3,26.5,19.7,32.9c-1,0.8-1.7,0.8-2.5-0.2
		c-0.7-0.8-1.4-1.7-2.1-2.5c-0.9-1.1-0.9-1.7,0.2-2.6c3.6-3,7.1-6,10.7-8.9c6.1-5.1,12.2-10.2,18.3-15.2C45.2,2.7,46,2,46.9,1.6
		c2-0.9,3.9-0.7,5.6,0.7c3.3,2.7,6.5,5.4,9.8,8.2c0.2,0.1,0.3,0.3,0.6,0.5c0-0.3,0-0.5,0-0.7c0-2.4,0-4.8,0-7.2
		c0-1.4,0.5-1.8,1.8-1.8c2.4,0,4.9,0,7.3,0c1.4,0,1.8,0.5,1.8,1.9c0,5.5,0,11,0,16.5c0,0.4,0.1,0.7,0.4,0.9c2.8,2.3,5.6,4.6,8.3,6.9
		c0.2,0.2,0.4,0.3,0.6,0.5c0.6,0.6,0.7,1.3,0.2,2c-0.8,1.1-1.7,2.1-2.6,3.1c-0.6,0.7-1.4,0.7-2.2,0.1c-3.3-2.8-6.6-5.5-9.9-8.3
		c-6.1-5.1-12.3-10.2-18.4-15.3C49.9,9.1,49.6,8.8,49.1,8.4z"/>
</g>
</svg>
