<?xml version="1.0" encoding="utf-8"?>
<!-- Generator: Adobe Illustrator 19.0.0, SVG Export Plug-In . SVG Version: 6.00 Build 0)  -->
<svg version="1.1" id="Layer_1" xmlns="http://www.w3.org/2000/svg" xmlns:xlink="http://www.w3.org/1999/xlink" x="0px" y="0px"
	 viewBox="0 0 100 100" style="enable-background:new 0 0 100 100;" xml:space="preserve">
<style type="text/css">
	.st0{fill:#ED2126;stroke:#FFFFFF;stroke-linecap:round;stroke-linejoin:round;stroke-miterlimit:10;}
	.st1{fill:#570E0E;}
</style>
<g id="XMLID_1_">
	<path id="XMLID_19_" class="st0" d="M49.5,98.3c-0.1,0-0.2,0-0.4,0c-2.5-10.3-7-19.7-12.7-28.6c-4.3-6.7-8.9-13.4-13.2-20.1
		c-2.4-3.7-4.5-7.6-5.5-12c-0.3-1.5-0.5-3-0.7-4.4c0-0.7,0-1.4,0-2c0.2-1.6,0.3-3.1,0.5-4.7c0.8-5.2,3-9.6,6.4-13.5
		C30.7,5.3,39.1,1.4,49.3,1.4C55.6,1.3,61.6,3,67,6.4c7.3,4.6,12.1,11,13.9,19.6c0.3,1.4,0.3,2.9,0.5,4.4c0,0.4,0,0.9,0,1.3
		c0,0.3-0.1,0.7-0.1,1c0,4.4-1.2,8.4-3.4,12.2c-1.4,2.5-2.8,5.1-4.3,7.5c-4.1,6.4-8.3,12.7-12.4,19.1c-4.5,7-8.1,14.4-10.5,22.4
		C50.2,95.3,49.9,96.8,49.5,98.3z"/>
</g>
<g id="XMLID_2_">
	<path id="XMLID_17_" class="st1" d="M49.6,44.8c-0.5,0-1.1,0-1.6,0c-0.2-0.1-0.5-0.1-0.7-0.2c-2.2-0.2-4.1-0.9-6-2
		c-5.9-3.6-7.6-11-3.9-16.4c3.2-4.6,9.3-6.8,15-5.3c4.7,1.3,7.9,4.1,9.3,8.8c0.2,0.8,0.3,1.6,0.5,2.4c0,0.3,0,0.6,0,0.9
		c-0.1,0.5-0.2,1.1-0.3,1.6c-1,4.6-3.9,7.6-8.3,9.2C52.4,44.3,51,44.5,49.6,44.8z"/>
</g>
</svg>
