<?xml version="1.0" encoding="utf-8"?>
<!-- Generator: Adobe Illustrator 19.0.0, SVG Export Plug-In . SVG Version: 6.00 Build 0)  -->
<svg version="1.1" id="Layer_1" xmlns="http://www.w3.org/2000/svg" xmlns:xlink="http://www.w3.org/1999/xlink" x="0px" y="0px"
	 viewBox="0 0 100 100" style="enable-background:new 0 0 100 100;" xml:space="preserve">
<style type="text/css">
	.st0{fill:#ED2126;stroke:#FFFFFF;stroke-linecap:round;stroke-linejoin:round;stroke-miterlimit:10;}
	.st1{fill:#570E0E;}
	.st2{fill:#570E0E;stroke:#551312;stroke-width:3;stroke-miterlimit:10;}
</style>
<g id="XMLID_1_">
	<path id="XMLID_19_" class="st0" d="M49.5,98.3c-0.1,0-0.2,0-0.4,0c-2.5-10.3-7-19.7-12.7-28.6c-4.3-6.7-8.9-13.4-13.2-20.1
		c-2.4-3.7-4.5-7.6-5.5-12c-0.3-1.5-0.5-3-0.7-4.4c0-0.7,0-1.4,0-2c0.2-1.6,0.3-3.1,0.5-4.7c0.8-5.2,3-9.6,6.4-13.5
		C30.7,5.3,39.1,1.4,49.3,1.4C55.6,1.3,61.6,3,67,6.4c7.3,4.6,12.1,11,13.9,19.6c0.3,1.4,0.3,2.9,0.5,4.4c0,0.4,0,0.9,0,1.3
		c0,0.3-0.1,0.7-0.1,1c0,4.4-1.2,8.4-3.4,12.2c-1.4,2.5-2.8,5.1-4.3,7.5c-4.1,6.4-8.3,12.7-12.4,19.1c-4.5,7-8.1,14.4-10.5,22.4
		C50.2,95.3,49.9,96.8,49.5,98.3z"/>
</g>
<g id="XMLID_2_">
	<path id="XMLID_17_" class="st1" d="M225.6,34.5c-0.5,0-1.1,0-1.6,0c-0.2-0.1-0.5-0.1-0.7-0.2c-2.2-0.2-4.1-0.9-6-2
		c-5.9-3.6-7.6-11-3.9-16.4c3.2-4.6,9.3-6.8,15-5.3c4.7,1.3,7.9,4.1,9.3,8.8c0.2,0.8,0.3,1.6,0.5,2.4c0,0.3,0,0.6,0,0.9
		c-0.1,0.5-0.2,1.1-0.3,1.6c-1,4.6-3.9,7.6-8.3,9.2C228.4,34.1,227,34.2,225.6,34.5z"/>
</g>
<g id="XMLID_3_">
	<path id="XMLID_78_" class="st2" d="M51,75c-2.7-1-3.8-2.9-3.6-5.7c0.2-3.2,0-6.5,0-10c-1.7,0.7-3.3,1.4-4.8,2.1
		c-0.3,0.2-0.5,0.8-0.5,1.2c-0.1,1.3,0,2.6,0,3.9c-0.1,2.6-1.9,4.4-4.3,4.6c-2.2,0.1-4.2-1.6-4.6-3.9c-0.1-0.5-0.2-0.9-0.3-1.6
		c-3.9,1.7-7.6,3.3-11.4,4.9c-0.6,0.3-1.2,0.6-1.8,0.7c-0.6,0.1-1.4,0.1-1.9-0.2c-0.3-0.2-0.3-1.2-0.1-1.7c1.8-4.2,3.6-8.3,5.4-12.4
		c7.7-17.7,15.4-35.4,23.1-53.1c0.3-0.6,0.6-1.2,1-1.8c0.4,0,0.9,0,1.3,0c14.3,7.4,25.2,18.6,34.5,31.5c1.4,1.9,2.4,4.1,3.5,6.2
		c1,2,0.8,2.3-1.2,3.2c-9.1,3.9-18.1,7.9-27.2,11.8c-1.1,0.5-1.5,1-1.5,2.2c0.1,4,0,8.1,0.1,12.1c0.1,2.8-0.9,4.9-3.6,6
		C52.3,75,51.6,75,51,75z M21.1,67.8c0.6-0.2,0.9-0.3,1.1-0.4c3.6-1.6,7.3-3.2,10.9-4.7c1.6-0.7,2.2-0.2,2.2,1.5c0,0.6,0,1.3,0,1.9
		c0.1,1.5,0.9,2.4,2,2.4c1.1,0,2-1,2-2.5c0-1.6,0.1-3.1,0-4.7c0-1.1,0.4-1.7,1.4-2.1c2-0.8,4-1.7,6.1-2.6c2.3-1,2.9-0.6,2.9,1.9
		c0,3.8,0,7.7,0,11.5c0,1.8,1.4,2.9,2.6,2.2c0.7-0.4,1.3-1.5,1.3-2.3c0.1-4.8,0.1-9.6,0-14.4c0-1.3,0.4-2,1.7-2.6
		C60,51,64.5,49,69,47.1c2.2-1,4.4-1.9,6.3-2.8c-1.9-3.7-3.8-7.2-5.6-10.7c-1.8-3.7-4.7-6-8.8-6.6c-2.5-0.3-4.1-1.7-5.2-3.8
		c-1-1.7-2-3.4-3.2-5.1c-1.4-2-3.4-3.3-5.8-3.8c-1.6-0.4-2.5,0.1-3.2,1.7C38.3,28.3,33,40.5,27.7,52.8
		C25.5,57.7,23.4,62.6,21.1,67.8z M45.5,11.7c3.5,0.2,6.2,1.6,8.2,4.1c1.5,1.8,2.7,3.7,3.9,5.7c1,1.7,2.1,2.9,4.1,3.2
		c4.8,0.7,8,3.4,10.1,7.7c1,2.1,2,4.2,3.1,6.2c0.7,1.3,1.6,2.6,2.5,3.8c0.3,0.3,1.1,0.6,1.5,0.4c1.7-0.6,3.3-1.4,5.2-2.2
		c-9-14.9-20.8-26.7-35.7-35.7C47.4,7.3,46.5,9.4,45.5,11.7z"/>
	<path id="XMLID_69_" class="st2" d="M62.3,46.2c-4,0-7.1-3.1-7.1-7.2c0-3.9,3.2-7.1,7.2-7.1c3.9,0,7.1,3.3,7,7.3
		C69.4,43.1,66.3,46.2,62.3,46.2z M66.9,39.1c0-2.6-2-4.6-4.5-4.6c-2.5,0-4.5,2-4.5,4.5c0,2.7,1.9,4.7,4.5,4.7
		C64.8,43.6,66.8,41.7,66.9,39.1z"/>
	<path id="XMLID_66_" class="st2" d="M46,42.3c-3.6,0-6.5-2.8-6.5-6.4c0-3.7,2.9-6.6,6.5-6.6c3.5,0,6.5,3,6.5,6.5
		C52.5,39.3,49.6,42.3,46,42.3z M45.9,39.7c2.2,0,4.1-1.7,4.1-3.9c0-2.1-1.8-3.9-3.9-3.9c-2.2,0-4.1,1.8-4.1,3.9
		C42,37.9,43.8,39.7,45.9,39.7z"/>
	<path id="XMLID_63_" class="st2" d="M42,51.5c0,2.9-2.2,5.1-5.1,5.1c-2.9,0-5.3-2.3-5.3-5.2c0-2.8,2.5-5.2,5.3-5.1
		C39.8,46.4,42,48.6,42,51.5z M36.9,48.8c-1.4,0-2.7,1.4-2.7,2.7c0,1.3,1.3,2.6,2.6,2.6c1.4,0,2.7-1.2,2.8-2.6
		C39.5,50.1,38.2,48.8,36.9,48.8z"/>
</g>
</svg>
