<?xml version="1.0" encoding="utf-8"?>
<!-- Generator: Adobe Illustrator 19.0.0, SVG Export Plug-In . SVG Version: 6.00 Build 0)  -->
<svg version="1.1" id="Layer_1" xmlns="http://www.w3.org/2000/svg" xmlns:xlink="http://www.w3.org/1999/xlink" x="0px" y="0px"
	 viewBox="0 0 100 100" style="enable-background:new 0 0 100 100;" xml:space="preserve">
<style type="text/css">
	.st0{fill:#ED2126;stroke:#FFFFFF;stroke-linecap:round;stroke-linejoin:round;stroke-miterlimit:10;}
	.st1{fill:#570E0E;}
	.st2{fill:#570E0E;stroke:#570E0E;stroke-width:2;stroke-miterlimit:10;}
</style>
<g id="XMLID_1_">
	<path id="XMLID_19_" class="st0" d="M49.5,98.3c-0.1,0-0.2,0-0.4,0c-2.5-10.3-7-19.7-12.7-28.6c-4.3-6.7-8.9-13.4-13.2-20.1
		c-2.4-3.7-4.5-7.6-5.5-12c-0.3-1.5-0.5-3-0.7-4.4c0-0.7,0-1.4,0-2c0.2-1.6,0.3-3.1,0.5-4.7c0.8-5.2,3-9.6,6.4-13.5
		C30.7,5.3,39.1,1.4,49.3,1.4C55.6,1.3,61.6,3,67,6.4c7.3,4.6,12.1,11,13.9,19.6c0.3,1.4,0.3,2.9,0.5,4.4c0,0.4,0,0.9,0,1.3
		c0,0.3-0.1,0.7-0.1,1c0,4.4-1.2,8.4-3.4,12.2c-1.4,2.5-2.8,5.1-4.3,7.5c-4.1,6.4-8.3,12.7-12.4,19.1c-4.5,7-8.1,14.4-10.5,22.4
		C50.2,95.3,49.9,96.8,49.5,98.3z"/>
</g>
<g id="XMLID_2_">
	<path id="XMLID_17_" class="st1" d="M225.6,34.5c-0.5,0-1.1,0-1.6,0c-0.2-0.1-0.5-0.1-0.7-0.2c-2.2-0.2-4.1-0.9-6-2
		c-5.9-3.6-7.6-11-3.9-16.4c3.2-4.6,9.3-6.8,15-5.3c4.7,1.3,7.9,4.1,9.3,8.8c0.2,0.8,0.3,1.6,0.5,2.4c0,0.3,0,0.6,0,0.9
		c-0.1,0.5-0.2,1.1-0.3,1.6c-1,4.6-3.9,7.6-8.3,9.2C228.4,34.1,227,34.2,225.6,34.5z"/>
</g>
<g id="XMLID_3_">
	<path id="XMLID_63_" class="st2" d="M43.2,0c1,0,2.1,0,3.1,0c0.6,0.2,1.3,0.4,1.9,0.5c3,0.8,5.3,2.7,7.2,5.1
		c0.5-0.2,0.9-0.3,1.3-0.4C61,3.9,64.9,4.7,68,8c3.2,3.3,3.7,7.2,2.5,11.6c-0.6,2.2-0.6,4.6-0.8,7.1c1.3,0,2.2,0,3.1,0
		c4.9,0.1,8.5,3.5,8.6,8.4c0.1,4.6,0.1,9.3,0,13.9c-0.1,4.9-3.6,8.3-8.5,8.3c-0.9,0-1.8,0-2.9,0c0,1.8,0,3.4,0,5
		c0,4.9-1,6.4-5.4,8.1c-10.5,0-21.1,0-31.6,0c-4.4-1.9-5.4-3.4-5.4-8.3c0-13.5,0-26.9,0-40.4c0-0.8-0.2-1.7-0.5-2.4
		c-2.3-5,0.1-10.2,5.4-11.8c0.6-0.2,1.1-0.8,1.6-1.2C35.6,4.8,37,3,38.7,1.8C39.8,0.9,41.6,0.6,43.2,0z M65,34.3
		c-11,0-21.8,0-32.6,0c0,0.4-0.1,0.7-0.1,1c0,9.3,0,18.6,0,27.9c0,1.8,0.6,2.3,2.5,2.3c9.1,0,18.3,0,27.4,0c2.4,0,2.8-0.4,2.8-2.8
		c0-8.9,0-17.8,0-26.8C65,35.4,65,34.9,65,34.3z M66.2,17.2c0-0.8,0.1-1.5,0-2.1c-0.8-5-5.8-7-9.9-4.1c-2,1.4-3.3,1.1-4.3-1.1
		c-0.1-0.2-0.2-0.4-0.3-0.6c-1.5-3-4-4.5-7.4-4.3c-3.2,0.2-5.5,2-6.6,4.9c-0.7,1.7-1.5,2.5-3.4,2.4c-2-0.1-3.6,1.9-3.2,3.7
		c0.1,0.4,0.7,1,1.2,1c2.2,0.1,4.5,0,6.7,0c0.1-0.4,0.2-0.7,0.3-0.9c0.5-1.3,1.4-1.7,2.7-1.6c1.3,0.2,1.9,1,2.1,2.2
		c0.7,4.1,4.4,6.6,8.5,5.5c3.2-0.8,5.1-2.9,5.8-6.1c0.3-1.2,1-2.3,2.3-2.1c0.8,0.1,1.7,0.8,2.4,1.4c0.3,0.3,0.2,1.1,0.4,1.6
		C64.3,17.2,65.1,17.2,66.2,17.2z M32.4,29.1c11,0,21.7,0,32.6,0c0-2.3,0-4.5,0-6.7c-3-0.5-3.3-0.4-5.3,1.5
		C54.3,29.1,46,28.7,41.2,23c-0.3-0.3-0.7-0.8-1.1-0.8c-2.6-0.1-5.2,0-7.8,0C32.4,24.6,32.4,26.8,32.4,29.1z M70,31.8
		c0,6.9,0,13.8,0,20.8c0.8,0,1.5,0,2.1,0c3,0,4.2-1.2,4.2-4.2c0-3.7-0.1-7.4,0-11.1c0.2-5.2-1.6-5.8-5.8-5.6
		C70.5,31.7,70.3,31.7,70,31.8z"/>
	<path id="XMLID_52_" class="st2" d="M41.7,49.7c0,3.3,0,6.6,0,9.9c0,1.8-0.8,2.8-2.3,2.9c-1.6,0-2.5-0.9-2.5-2.8c0-6.5,0-13,0-19.6
		c0-1.9,1-3,2.4-3c1.5,0,2.4,1.1,2.4,3C41.7,43.2,41.7,46.4,41.7,49.7z"/>
	<path id="XMLID_51_" class="st2" d="M55.4,49.5c0-3.2,0-6.5,0-9.7c0-1.7,1-2.8,2.4-2.8s2.4,1.1,2.4,2.7c0,6.7,0,13.5,0,20.2
		c0,1.7-1,2.6-2.5,2.5c-1.5,0-2.3-1-2.3-2.7C55.3,56.3,55.4,52.9,55.4,49.5z"/>
	<path id="XMLID_50_" class="st2" d="M46.3,50.8c0-3,0-6,0-8.9c0-1.7,0.9-2.7,2.3-2.8c1.5-0.1,2.6,0.9,2.7,2.6c0,6,0,12,0,18
		c0,1.7-1,2.7-2.6,2.7c-1.5,0-2.4-1-2.4-2.9C46.3,56.6,46.3,53.7,46.3,50.8z"/>
</g>
</svg>
