<?xml version="1.0" encoding="utf-8"?>
<!-- Generator: Adobe Illustrator 19.0.0, SVG Export Plug-In . SVG Version: 6.00 Build 0)  -->
<svg version="1.1" id="Layer_1" xmlns="http://www.w3.org/2000/svg" xmlns:xlink="http://www.w3.org/1999/xlink" x="0px" y="0px"
	 viewBox="0 0 100 100" style="enable-background:new 0 0 100 100;" xml:space="preserve">
<style type="text/css">
	.st0{fill:#ED2126;stroke:#FFFFFF;stroke-linecap:round;stroke-linejoin:round;stroke-miterlimit:10;}
	.st1{fill:#570E0E;}
</style>
<g id="XMLID_1_">
	<path id="XMLID_19_" class="st0" d="M49.5,98.3c-0.1,0-0.2,0-0.4,0c-2.5-10.3-7-19.7-12.7-28.6c-4.3-6.7-8.9-13.4-13.2-20.1
		c-2.4-3.7-4.5-7.6-5.5-12c-0.3-1.5-0.5-3-0.7-4.4c0-0.7,0-1.4,0-2c0.2-1.6,0.3-3.1,0.5-4.7c0.8-5.2,3-9.6,6.4-13.5
		C30.7,5.3,39.1,1.4,49.3,1.4C55.6,1.3,61.6,3,67,6.4c7.3,4.6,12.1,11,13.9,19.6c0.3,1.4,0.3,2.9,0.5,4.4c0,0.4,0,0.9,0,1.3
		c0,0.3-0.1,0.7-0.1,1c0,4.4-1.2,8.4-3.4,12.2c-1.4,2.5-2.8,5.1-4.3,7.5c-4.1,6.4-8.3,12.7-12.4,19.1c-4.5,7-8.1,14.4-10.5,22.4
		C50.2,95.3,49.9,96.8,49.5,98.3z"/>
</g>
<g id="XMLID_2_">
	<path id="XMLID_17_" class="st1" d="M225.6,34.5c-0.5,0-1.1,0-1.6,0c-0.2-0.1-0.5-0.1-0.7-0.2c-2.2-0.2-4.1-0.9-6-2
		c-5.9-3.6-7.6-11-3.9-16.4c3.2-4.6,9.3-6.8,15-5.3c4.7,1.3,7.9,4.1,9.3,8.8c0.2,0.8,0.3,1.6,0.5,2.4c0,0.3,0,0.6,0,0.9
		c-0.1,0.5-0.2,1.1-0.3,1.6c-1,4.6-3.9,7.6-8.3,9.2C228.4,34.1,227,34.2,225.6,34.5z"/>
</g>
<g id="XMLID_3_">
	<path id="XMLID_18_" class="st1" d="M24.4,85c1.4-1.5,3.2-2.9,4.2-4.6C33,72.7,37.3,65,41.8,57c3.4,1.7,6.7,3.3,10.4,5.1
		c-3.9,2.5-7.4,4.8-10.9,7.1c-2.6,1.7-3.5,4.1-2.4,6.6c0.9,2.2,3.1,3.3,5.3,2.7c0.5-0.1,1-0.3,1.5-0.6c6-3.1,12-6.2,18-9.5
		c1.9-1,3.2-2.7,3.7-5c0.5-2.4-0.4-4.2-2.3-5.6c-3.2-2.3-6.4-4.6-9.6-6.9c-0.5-0.4-1.1-0.8-1.7-1.3c3-5.6,5.9-11.1,8.8-16.7
		c7.3,2,14.1,1.3,20.1-3.3c3-2.3,5.5-5.5,8.1-8.4c0.7-0.7,1-2,1.1-3c0.3-1.8-0.4-3.3-2-4.2c-1.7-0.9-3.3-0.5-4.7,0.7
		c-0.7,0.5-1.3,1.2-1.8,1.9c-4.9,7.1-13.5,7.3-20,4.3c-2-0.9-3.9-2-5.7-3.1c-11.6-7.3-26.1-2.5-33.3,8.2c-1,1.6-1.7,3.3-1,5.3
		c0.9,2.7,3.7,3.7,6,1.9c0.8-0.7,1.5-1.6,2.2-2.5c3.7-4.6,8.1-7.2,14.2-5.6c-0.2,0.4-0.3,0.8-0.5,1.2c-8.6,16.6-17.1,33.3-25.7,49.9
		c-2.2,4.3-1.5,6.6,2.5,8.8C22.9,85,23.6,85,24.4,85z"/>
	<path id="XMLID_16_" class="st1" d="M64.1,1c-3.9,1-6.6,3.3-7.4,7.6c-0.9,4.5,2.5,9.6,7,10.3c5.1,0.8,9.7-2.6,10.2-7.6
		c0.5-5.1-1.6-8.2-7.2-10.4C65.8,1,65,1,64.1,1z"/>
</g>
</svg>
