<?xml version="1.0" encoding="utf-8"?>
<!-- Generator: Adobe Illustrator 19.0.0, SVG Export Plug-In . SVG Version: 6.00 Build 0)  -->
<svg version="1.1" id="Layer_1" xmlns="http://www.w3.org/2000/svg" xmlns:xlink="http://www.w3.org/1999/xlink" x="0px" y="0px"
	 viewBox="0 0 100 100" style="enable-background:new 0 0 100 100;" xml:space="preserve">
<style type="text/css">
	.st0{fill:#ED2126;stroke:#FFFFFF;stroke-linecap:round;stroke-linejoin:round;stroke-miterlimit:10;}
	.st1{fill:#570E0E;}
</style>
<g id="XMLID_1_">
	<path id="XMLID_19_" class="st0" d="M49.5,98.3c-0.1,0-0.2,0-0.4,0c-2.5-10.3-7-19.7-12.7-28.6c-4.3-6.7-8.9-13.4-13.2-20.1
		c-2.4-3.7-4.5-7.6-5.5-12c-0.3-1.5-0.5-3-0.7-4.4c0-0.7,0-1.4,0-2c0.2-1.6,0.3-3.1,0.5-4.7c0.8-5.2,3-9.6,6.4-13.5
		C30.7,5.3,39.1,1.4,49.3,1.4C55.6,1.3,61.6,3,67,6.4c7.3,4.6,12.1,11,13.9,19.6c0.3,1.4,0.3,2.9,0.5,4.4c0,0.4,0,0.9,0,1.3
		c0,0.3-0.1,0.7-0.1,1c0,4.4-1.2,8.4-3.4,12.2c-1.4,2.5-2.8,5.1-4.3,7.5c-4.1,6.4-8.3,12.7-12.4,19.1c-4.5,7-8.1,14.4-10.5,22.4
		C50.2,95.3,49.9,96.8,49.5,98.3z"/>
</g>
<g id="XMLID_2_">
	<path id="XMLID_17_" class="st1" d="M225.6,34.5c-0.5,0-1.1,0-1.6,0c-0.2-0.1-0.5-0.1-0.7-0.2c-2.2-0.2-4.1-0.9-6-2
		c-5.9-3.6-7.6-11-3.9-16.4c3.2-4.6,9.3-6.8,15-5.3c4.7,1.3,7.9,4.1,9.3,8.8c0.2,0.8,0.3,1.6,0.5,2.4c0,0.3,0,0.6,0,0.9
		c-0.1,0.5-0.2,1.1-0.3,1.6c-1,4.6-3.9,7.6-8.3,9.2C228.4,34.1,227,34.2,225.6,34.5z"/>
</g>
<path id="XMLID_38_" class="st1" d="M77.1,1.1c1.4,0.3,2.7,0.9,3.7,2.1c2.7,3.2,1.3,8.1-2.7,9.3c-2.1,0.6-4.3,0.9-6.4,1.3
	c-4.5,0.8-9.1,1.7-13.6,2.5c-0.2,0-0.4,0.1-0.6,0.2c5.7,10.2,11.3,20.4,17,30.7c-1.8,0.6-3.6,0.9-5.4,0.5c-1.9-0.4-3.7-1.1-5.6-1.7
	c-2.9-0.9-5.7-0.7-8.5,0.4c-2.1,0.8-4.2,1.5-6.4,1.4c-1.7-0.1-3.3-0.5-4.9-1.2c-3.5-1.5-7.1-1.5-10.6,0c-3.7,1.6-7.3,1.6-11-0.1
	c-0.6-0.3-1.2-0.4-1.9-0.7c10-5.5,20-11,29.9-16.5c-0.1-0.3-0.2-0.5-0.4-0.7c-2.5-4.5-5-8.9-7.4-13.4c-1.3-2.3-1.3-4.5,0.3-6.7
	c1-1.4,2.5-1.8,4.1-2.1C54.4,5,62.2,3.5,70.1,2.1c1.7-0.3,3.4-0.6,5.1-0.9c0.1,0,0.3-0.1,0.4-0.1C76.1,1.1,76.6,1.1,77.1,1.1z"/>
<path id="XMLID_32_" class="st1" d="M79.5,40c-5.9-0.1-10.2-4.5-10.1-10.4c0.1-5.7,4.7-10.1,10.3-10c5.7,0.1,10.2,4.7,10.1,10.3
	C89.7,35.5,85.1,40,79.5,40z"/>
<path id="XMLID_6_" class="st1" d="M79.6,52.3c-1.2,0.2-2.4,0.5-3.6,1c-3.6,1.6-7.2,1.6-10.8,0c-3.6-1.5-7.2-1.5-10.7,0
	c-3.6,1.5-7.1,1.6-10.7,0c-3.6-1.6-7.2-1.6-10.9,0c-2,0.9-4.2,1.3-6.4,1.1c-1.7-0.1-3.3-0.7-4.9-1.4c-1.5-0.6-3-0.9-4.5-0.9V60
	c1,0,1.9,0.2,2.9,0.4c2.1,0.6,4.2,1.3,6.3,1.9c0.9,0,1.7,0,2.6,0c2.5-0.7,5.1-1.5,7.7-2.2c1.6-0.4,3.3-0.2,5,0.2
	c2.1,0.6,4.2,1.3,6.3,1.9c0.9,0,1.7,0,2.6,0c2.5-0.7,5.1-1.5,7.7-2.2c1.6-0.4,3.3-0.2,5,0.2c2.1,0.6,4.2,1.3,6.3,1.9
	c0.9,0,1.7,0,2.6,0c2.5-0.7,5.1-1.5,7.7-2.2c0,0,0.1,0,0.1,0V52.3z"/>
</svg>
